<svg xmlns="http://www.w3.org/2000/svg" version="1.1" xmlns:xlink="http://www.w3.org/1999/xlink" xmlns:svgjs="http://svgjs.dev/svgjs" width="1440" height="560" preserveAspectRatio="none" viewBox="0 0 1440 560"><g mask="url(&quot;#SvgjsMask1000&quot;)" fill="none"><rect width="1440" height="560" x="0" y="0" fill="#0e2a47"></rect><path d="M0 510.26L10 516.72L20 528.46L30 470.59L40 496.97L50 454.08L60 513.17L70 551.17L80 535.77L90 546.44L100 497.17L110 442.25L120 433.76L130 438.86L140 437.86L150 413.25L160 455.24L170 443.81L180 466.08L190 513.1L200 499.95L210 488.24L220 444.52L230 438.15L240 392.03L250 399.26L260 336.78L270 321.75L280 355.11L290 344.84L300 275.49L310 330.36L320 285.15L330 326.9L340 370.1L350 353.34L360 360.12L370 294.74L380 293.87L390 257.8L400 191.33L410 241.47L420 187.69L430 132.72L440 111.81L450 166.92L460 227.37L470 222.11L480 214.89L490 162.71L500 115.71L510 168.64L520 122.6L530 97.02L540 59.7L550 95.29L560 52.25L570 18.95L580 22.43L590 81.05L600 48.63L610 20.31L620 84.97L630 127.84L640 138.01L650 81.49L660 86.34L670 91.43L680 120.44L690 120.14L700 153.42L710 183.93L720 190.87L730 181.6L740 183.49L750 177.96L760 149.33L770 143.88L780 189.35L790 241.46L800 295.35L810 226.97L820 284.66L830 248.46L840 271.38L850 337.71L860 388L870 329.43L880 375.2L890 393.37L900 340.63L910 401.8L920 441.19L930 380.3L940 431.28L950 493.51L960 467.06L970 502.45L980 510.93L990 536.62L1000 468.15L1010 450.8L1020 513.2L1030 529.77L1040 473.78L1050 468.23L1060 524.96L1070 493.93L1080 557.19L1090 513.94L1100 454.52L1110 393.54L1120 427.62L1130 434.52L1140 494.11L1150 436.98L1160 410.87L1170 379.47L1180 425.17L1190 361.96L1200 323.05L1210 360.03L1220 428.19L1230 431.1L1240 404.88L1250 418.97L1260 459.47L1270 512.92L1280 504.87L1290 523.54L1300 481.38L1310 517.48L1320 518.19L1330 486.6L1340 440.73L1350 506.09L1360 541.44L1370 484.59L1380 551.14L1390 533.15L1400 533.4L1410 555.05L1420 557.38L1430 516.98L1440 537.99" stroke="#224b75" stroke-width="2"></path><path d="M0 510.26L10 516.72L20 528.46L30 470.59L40 496.97L50 454.08L60 513.17L70 551.17L80 535.77L90 546.44L100 497.17L110 442.25L120 433.76L130 438.86L140 437.86L150 413.25L160 455.24L170 443.81L180 466.08L190 513.1L200 499.95L210 488.24L220 444.52L230 438.15L240 392.03L250 399.26L260 336.78L270 321.75L280 355.11L290 344.84L300 275.49L310 330.36L320 285.15L330 326.9L340 370.1L350 353.34L360 360.12L370 294.74L380 293.87L390 257.8L400 191.33L410 241.47L420 187.69L430 132.72L440 111.81L450 166.92L460 227.37L470 222.11L480 214.89L490 162.71L500 115.71L510 168.64L520 122.6L530 97.02L540 59.7L550 95.29L560 52.25L570 18.95L580 22.43L590 81.05L600 48.63L610 20.31L620 84.97L630 127.84L640 138.01L650 81.49L660 86.34L670 91.43L680 120.44L690 120.14L700 153.42L710 183.93L720 190.87L730 181.6L740 183.49L750 177.96L760 149.33L770 143.88L780 189.35L790 241.46L800 295.35L810 226.97L820 284.66L830 248.46L840 271.38L850 337.71L860 388L870 329.43L880 375.2L890 393.37L900 340.63L910 401.8L920 441.19L930 380.3L940 431.28L950 493.51L960 467.06L970 502.45L980 510.93L990 536.62L1000 468.15L1010 450.8L1020 513.2L1030 529.77L1040 473.78L1050 468.23L1060 524.96L1070 493.93L1080 557.19L1090 513.94L1100 454.52L1110 393.54L1120 427.62L1130 434.52L1140 494.11L1150 436.98L1160 410.87L1170 379.47L1180 425.17L1190 361.96L1200 323.05L1210 360.03L1220 428.19L1230 431.1L1240 404.88L1250 418.97L1260 459.47L1270 512.92L1280 504.87L1290 523.54L1300 481.38L1310 517.48L1320 518.19L1330 486.6L1340 440.73L1350 506.09L1360 541.44L1370 484.59L1380 551.14L1390 533.15L1400 533.4L1410 555.05L1420 557.38L1430 516.98L1440 537.99L1440 560L0 560z" fill="url(&quot;#SvgjsLinearGradient1001&quot;)"></path></g><defs><mask id="SvgjsMask1000"><rect width="1440" height="560" fill="#ffffff"></rect></mask><linearGradient x1="50%" y1="0%" x2="50%" y2="100%" id="SvgjsLinearGradient1001"><stop stop-opacity="0.65" stop-color="#224b75" offset="0"></stop><stop stop-opacity="0" stop-color="#508dcc" offset="0.8"></stop></linearGradient></defs></svg>