<svg xmlns="http://www.w3.org/2000/svg" version="1.1" xmlns:xlink="http://www.w3.org/1999/xlink" xmlns:svgjs="http://svgjs.dev/svgjs" width="1440" height="560" preserveAspectRatio="none" viewBox="0 0 1440 560"><g mask="url(&quot;#SvgjsMask1000&quot;)" fill="none"><rect width="1440" height="560" x="0" y="0" fill="#0e2a47"></rect><path d="M-55.99 374.4L-55.99 374.4" stroke="#132e65" stroke-width="1.5"></path><path d="M-55.99 374.4L94.59 341.27" stroke="#132e65" stroke-width="1.5"></path><path d="M-55.99 374.4L38.86 498.24" stroke="#132e65" stroke-width="1.5"></path><path d="M-55.99 374.4L-76.96 554.66" stroke="#132e65" stroke-width="1.5"></path><path d="M-76.96 554.66L-76.96 554.66" stroke="#132e65" stroke-width="1.5"></path><path d="M-76.96 554.66L-109.19 663.44" stroke="#132e65" stroke-width="1.5"></path><path d="M-76.96 554.66L38.86 498.24" stroke="#132e65" stroke-width="1.5"></path><path d="M-76.96 554.66L99.16 710.75" stroke="#132e65" stroke-width="1.5"></path><path d="M-76.96 554.66L94.59 341.27" stroke="#132e65" stroke-width="1.5"></path><path d="M-109.19 663.44L-109.19 663.44" stroke="#132e65" stroke-width="1.5"></path><path d="M-109.19 663.44L99.16 710.75" stroke="#132e65" stroke-width="1.5"></path><path d="M94.59 341.27L94.59 341.27" stroke="#132e65" stroke-width="1.5"></path><path d="M94.59 341.27L38.86 498.24" stroke="#132e65" stroke-width="1.5"></path><path d="M38.86 498.24L38.86 498.24" stroke="#132e65" stroke-width="1.5"></path><path d="M38.86 498.24L224.14 508.42" stroke="#132e65" stroke-width="1.5"></path><path d="M38.86 498.24L99.16 710.75" stroke="#132e65" stroke-width="1.5"></path><path d="M99.16 710.75L99.16 710.75" stroke="#132e65" stroke-width="1.5"></path><path d="M99.16 710.75L239.2 683.88" stroke="#132e65" stroke-width="1.5"></path><path d="M224.14 508.42L224.14 508.42" stroke="#132e65" stroke-width="1.5"></path><path d="M224.14 508.42L239.2 683.88" stroke="#132e65" stroke-width="1.5"></path><path d="M224.14 508.42L411.54 504.9" stroke="#132e65" stroke-width="1.5"></path><path d="M224.14 508.42L94.59 341.27" stroke="#132e65" stroke-width="1.5"></path><path d="M224.14 508.42L349.08 683.43" stroke="#132e65" stroke-width="1.5"></path><path d="M239.2 683.88L239.2 683.88" stroke="#132e65" stroke-width="1.5"></path><path d="M239.2 683.88L349.08 683.43" stroke="#132e65" stroke-width="1.5"></path><path d="M239.2 683.88L411.54 504.9" stroke="#132e65" stroke-width="1.5"></path><path d="M239.2 683.88L487.58 637.98" stroke="#132e65" stroke-width="1.5"></path><path d="M239.2 683.88L38.86 498.24" stroke="#132e65" stroke-width="1.5"></path><path d="M411.54 504.9L411.54 504.9" stroke="#132e65" stroke-width="1.5"></path><path d="M411.54 504.9L501.25 496.78" stroke="#132e65" stroke-width="1.5"></path><path d="M411.54 504.9L487.58 637.98" stroke="#132e65" stroke-width="1.5"></path><path d="M411.54 504.9L349.08 683.43" stroke="#132e65" stroke-width="1.5"></path><path d="M411.54 504.9L549.2 372.86" stroke="#132e65" stroke-width="1.5"></path><path d="M349.08 683.43L349.08 683.43" stroke="#132e65" stroke-width="1.5"></path><path d="M349.08 683.43L487.58 637.98" stroke="#132e65" stroke-width="1.5"></path><path d="M349.08 683.43L501.25 496.78" stroke="#132e65" stroke-width="1.5"></path><path d="M349.08 683.43L99.16 710.75" stroke="#132e65" stroke-width="1.5"></path><path d="M549.2 372.86L549.2 372.86" stroke="#132e65" stroke-width="1.5"></path><path d="M549.2 372.86L501.25 496.78" stroke="#132e65" stroke-width="1.5"></path><path d="M549.2 372.86L682.81 346.12" stroke="#132e65" stroke-width="1.5"></path><path d="M501.25 496.78L501.25 496.78" stroke="#132e65" stroke-width="1.5"></path><path d="M501.25 496.78L487.58 637.98" stroke="#132e65" stroke-width="1.5"></path><path d="M501.25 496.78L676.72 528.77" stroke="#132e65" stroke-width="1.5"></path><path d="M501.25 496.78L682.81 346.12" stroke="#132e65" stroke-width="1.5"></path><path d="M487.58 637.98L487.58 637.98" stroke="#132e65" stroke-width="1.5"></path><path d="M705.19 204.33L705.19 204.33" stroke="#132e65" stroke-width="1.5"></path><path d="M705.19 204.33L834.34 209.65" stroke="#132e65" stroke-width="1.5"></path><path d="M705.19 204.33L682.81 346.12" stroke="#132e65" stroke-width="1.5"></path><path d="M705.19 204.33L834.01 112.17" stroke="#132e65" stroke-width="1.5"></path><path d="M705.19 204.33L549.2 372.86" stroke="#132e65" stroke-width="1.5"></path><path d="M705.19 204.33L837.49 396.22" stroke="#132e65" stroke-width="1.5"></path><path d="M705.19 204.33L992.53 207.77" stroke="#132e65" stroke-width="1.5"></path><path d="M682.81 346.12L682.81 346.12" stroke="#132e65" stroke-width="1.5"></path><path d="M682.81 346.12L837.49 396.22" stroke="#132e65" stroke-width="1.5"></path><path d="M682.81 346.12L676.72 528.77" stroke="#132e65" stroke-width="1.5"></path><path d="M676.72 528.77L676.72 528.77" stroke="#132e65" stroke-width="1.5"></path><path d="M676.72 528.77L814.48 506.87" stroke="#132e65" stroke-width="1.5"></path><path d="M676.72 528.77L690.9 702.21" stroke="#132e65" stroke-width="1.5"></path><path d="M690.9 702.21L690.9 702.21" stroke="#132e65" stroke-width="1.5"></path><path d="M690.9 702.21L487.58 637.98" stroke="#132e65" stroke-width="1.5"></path><path d="M690.9 702.21L814.48 506.87" stroke="#132e65" stroke-width="1.5"></path><path d="M690.9 702.21L501.25 496.78" stroke="#132e65" stroke-width="1.5"></path><path d="M690.9 702.21L980.35 649.86" stroke="#132e65" stroke-width="1.5"></path><path d="M834.01 112.17L834.01 112.17" stroke="#132e65" stroke-width="1.5"></path><path d="M834.01 112.17L834.34 209.65" stroke="#132e65" stroke-width="1.5"></path><path d="M834.34 209.65L834.34 209.65" stroke="#132e65" stroke-width="1.5"></path><path d="M834.34 209.65L992.53 207.77" stroke="#132e65" stroke-width="1.5"></path><path d="M834.34 209.65L837.49 396.22" stroke="#132e65" stroke-width="1.5"></path><path d="M837.49 396.22L837.49 396.22" stroke="#132e65" stroke-width="1.5"></path><path d="M837.49 396.22L814.48 506.87" stroke="#132e65" stroke-width="1.5"></path><path d="M837.49 396.22L942.97 527.63" stroke="#132e65" stroke-width="1.5"></path><path d="M814.48 506.87L814.48 506.87" stroke="#132e65" stroke-width="1.5"></path><path d="M814.48 506.87L942.97 527.63" stroke="#132e65" stroke-width="1.5"></path><path d="M984.4 -85.02L984.4 -85.02" stroke="#132e65" stroke-width="1.5"></path><path d="M984.4 -85.02L1113.01 -82.47" stroke="#132e65" stroke-width="1.5"></path><path d="M984.4 -85.02L1006.85 81.88" stroke="#132e65" stroke-width="1.5"></path><path d="M984.4 -85.02L1138.44 37.63" stroke="#132e65" stroke-width="1.5"></path><path d="M1006.85 81.88L1006.85 81.88" stroke="#132e65" stroke-width="1.5"></path><path d="M1006.85 81.88L992.53 207.77" stroke="#132e65" stroke-width="1.5"></path><path d="M1006.85 81.88L1138.44 37.63" stroke="#132e65" stroke-width="1.5"></path><path d="M1006.85 81.88L1109.16 191.23" stroke="#132e65" stroke-width="1.5"></path><path d="M1006.85 81.88L834.01 112.17" stroke="#132e65" stroke-width="1.5"></path><path d="M1006.85 81.88L1113.01 -82.47" stroke="#132e65" stroke-width="1.5"></path><path d="M992.53 207.77L992.53 207.77" stroke="#132e65" stroke-width="1.5"></path><path d="M992.53 207.77L1109.16 191.23" stroke="#132e65" stroke-width="1.5"></path><path d="M942.97 527.63L942.97 527.63" stroke="#132e65" stroke-width="1.5"></path><path d="M942.97 527.63L980.35 649.86" stroke="#132e65" stroke-width="1.5"></path><path d="M980.35 649.86L980.35 649.86" stroke="#132e65" stroke-width="1.5"></path><path d="M980.35 649.86L1153.14 647.83" stroke="#132e65" stroke-width="1.5"></path><path d="M980.35 649.86L1121.97 503.85" stroke="#132e65" stroke-width="1.5"></path><path d="M980.35 649.86L814.48 506.87" stroke="#132e65" stroke-width="1.5"></path><path d="M980.35 649.86L1248.05 705.32" stroke="#132e65" stroke-width="1.5"></path><path d="M980.35 649.86L837.49 396.22" stroke="#132e65" stroke-width="1.5"></path><path d="M1113.01 -82.47L1113.01 -82.47" stroke="#132e65" stroke-width="1.5"></path><path d="M1113.01 -82.47L1138.44 37.63" stroke="#132e65" stroke-width="1.5"></path><path d="M1113.01 -82.47L1270.05 -39.46" stroke="#132e65" stroke-width="1.5"></path><path d="M1138.44 37.63L1138.44 37.63" stroke="#132e65" stroke-width="1.5"></path><path d="M1138.44 37.63L1267.49 68.87" stroke="#132e65" stroke-width="1.5"></path><path d="M1138.44 37.63L1270.05 -39.46" stroke="#132e65" stroke-width="1.5"></path><path d="M1138.44 37.63L1109.16 191.23" stroke="#132e65" stroke-width="1.5"></path><path d="M1109.16 191.23L1109.16 191.23" stroke="#132e65" stroke-width="1.5"></path><path d="M1109.16 191.23L1293.06 198.93" stroke="#132e65" stroke-width="1.5"></path><path d="M1121.97 503.85L1121.97 503.85" stroke="#132e65" stroke-width="1.5"></path><path d="M1121.97 503.85L1153.14 647.83" stroke="#132e65" stroke-width="1.5"></path><path d="M1121.97 503.85L1282.24 525.19" stroke="#132e65" stroke-width="1.5"></path><path d="M1121.97 503.85L942.97 527.63" stroke="#132e65" stroke-width="1.5"></path><path d="M1121.97 503.85L1299.59 350.01" stroke="#132e65" stroke-width="1.5"></path><path d="M1153.14 647.83L1153.14 647.83" stroke="#132e65" stroke-width="1.5"></path><path d="M1153.14 647.83L1248.05 705.32" stroke="#132e65" stroke-width="1.5"></path><path d="M1270.05 -39.46L1270.05 -39.46" stroke="#132e65" stroke-width="1.5"></path><path d="M1270.05 -39.46L1267.49 68.87" stroke="#132e65" stroke-width="1.5"></path><path d="M1267.49 68.87L1267.49 68.87" stroke="#132e65" stroke-width="1.5"></path><path d="M1267.49 68.87L1391.62 84.25" stroke="#132e65" stroke-width="1.5"></path><path d="M1267.49 68.87L1293.06 198.93" stroke="#132e65" stroke-width="1.5"></path><path d="M1267.49 68.87L1109.16 191.23" stroke="#132e65" stroke-width="1.5"></path><path d="M1293.06 198.93L1293.06 198.93" stroke="#132e65" stroke-width="1.5"></path><path d="M1293.06 198.93L1418.13 223.78" stroke="#132e65" stroke-width="1.5"></path><path d="M1293.06 198.93L1391.62 84.25" stroke="#132e65" stroke-width="1.5"></path><path d="M1293.06 198.93L1299.59 350.01" stroke="#132e65" stroke-width="1.5"></path><path d="M1299.59 350.01L1299.59 350.01" stroke="#132e65" stroke-width="1.5"></path><path d="M1299.59 350.01L1461.98 362.2" stroke="#132e65" stroke-width="1.5"></path><path d="M1299.59 350.01L1418.13 223.78" stroke="#132e65" stroke-width="1.5"></path><path d="M1299.59 350.01L1282.24 525.19" stroke="#132e65" stroke-width="1.5"></path><path d="M1299.59 350.01L1422.65 496.39" stroke="#132e65" stroke-width="1.5"></path><path d="M1282.24 525.19L1282.24 525.19" stroke="#132e65" stroke-width="1.5"></path><path d="M1282.24 525.19L1422.65 496.39" stroke="#132e65" stroke-width="1.5"></path><path d="M1282.24 525.19L1153.14 647.83" stroke="#132e65" stroke-width="1.5"></path><path d="M1282.24 525.19L1248.05 705.32" stroke="#132e65" stroke-width="1.5"></path><path d="M1282.24 525.19L1444.72 699.99" stroke="#132e65" stroke-width="1.5"></path><path d="M1248.05 705.32L1248.05 705.32" stroke="#132e65" stroke-width="1.5"></path><path d="M1248.05 705.32L1444.72 699.99" stroke="#132e65" stroke-width="1.5"></path><path d="M1248.05 705.32L1121.97 503.85" stroke="#132e65" stroke-width="1.5"></path><path d="M1248.05 705.32L1422.65 496.39" stroke="#132e65" stroke-width="1.5"></path><path d="M1438.88 -103.32L1438.88 -103.32" stroke="#132e65" stroke-width="1.5"></path><path d="M1438.88 -103.32L1589.17 -82.04" stroke="#132e65" stroke-width="1.5"></path><path d="M1438.88 -103.32L1270.05 -39.46" stroke="#132e65" stroke-width="1.5"></path><path d="M1438.88 -103.32L1391.62 84.25" stroke="#132e65" stroke-width="1.5"></path><path d="M1438.88 -103.32L1562.65 60.47" stroke="#132e65" stroke-width="1.5"></path><path d="M1438.88 -103.32L1267.49 68.87" stroke="#132e65" stroke-width="1.5"></path><path d="M1391.62 84.25L1391.62 84.25" stroke="#132e65" stroke-width="1.5"></path><path d="M1391.62 84.25L1418.13 223.78" stroke="#132e65" stroke-width="1.5"></path><path d="M1418.13 223.78L1418.13 223.78" stroke="#132e65" stroke-width="1.5"></path><path d="M1461.98 362.2L1461.98 362.2" stroke="#132e65" stroke-width="1.5"></path><path d="M1461.98 362.2L1589.75 374.06" stroke="#132e65" stroke-width="1.5"></path><path d="M1461.98 362.2L1422.65 496.39" stroke="#132e65" stroke-width="1.5"></path><path d="M1461.98 362.2L1418.13 223.78" stroke="#132e65" stroke-width="1.5"></path><path d="M1461.98 362.2L1581.73 207.65" stroke="#132e65" stroke-width="1.5"></path><path d="M1422.65 496.39L1422.65 496.39" stroke="#132e65" stroke-width="1.5"></path><path d="M1444.72 699.99L1444.72 699.99" stroke="#132e65" stroke-width="1.5"></path><path d="M1444.72 699.99L1577.72 705.17" stroke="#132e65" stroke-width="1.5"></path><path d="M1444.72 699.99L1585.76 557.3" stroke="#132e65" stroke-width="1.5"></path><path d="M1444.72 699.99L1422.65 496.39" stroke="#132e65" stroke-width="1.5"></path><path d="M1444.72 699.99L1153.14 647.83" stroke="#132e65" stroke-width="1.5"></path><path d="M1589.17 -82.04L1589.17 -82.04" stroke="#132e65" stroke-width="1.5"></path><path d="M1589.17 -82.04L1562.65 60.47" stroke="#132e65" stroke-width="1.5"></path><path d="M1589.17 -82.04L1391.62 84.25" stroke="#132e65" stroke-width="1.5"></path><path d="M1562.65 60.47L1562.65 60.47" stroke="#132e65" stroke-width="1.5"></path><path d="M1562.65 60.47L1581.73 207.65" stroke="#132e65" stroke-width="1.5"></path><path d="M1562.65 60.47L1391.62 84.25" stroke="#132e65" stroke-width="1.5"></path><path d="M1581.73 207.65L1581.73 207.65" stroke="#132e65" stroke-width="1.5"></path><path d="M1581.73 207.65L1418.13 223.78" stroke="#132e65" stroke-width="1.5"></path><path d="M1581.73 207.65L1589.75 374.06" stroke="#132e65" stroke-width="1.5"></path><path d="M1589.75 374.06L1589.75 374.06" stroke="#132e65" stroke-width="1.5"></path><path d="M1589.75 374.06L1585.76 557.3" stroke="#132e65" stroke-width="1.5"></path><path d="M1589.75 374.06L1422.65 496.39" stroke="#132e65" stroke-width="1.5"></path><path d="M1589.75 374.06L1418.13 223.78" stroke="#132e65" stroke-width="1.5"></path><path d="M1589.75 374.06L1299.59 350.01" stroke="#132e65" stroke-width="1.5"></path><path d="M1585.76 557.3L1585.76 557.3" stroke="#132e65" stroke-width="1.5"></path><path d="M1585.76 557.3L1577.72 705.17" stroke="#132e65" stroke-width="1.5"></path><path d="M1585.76 557.3L1422.65 496.39" stroke="#132e65" stroke-width="1.5"></path><path d="M1577.72 705.17L1577.72 705.17" stroke="#132e65" stroke-width="1.5"></path><path d="M1577.72 705.17L1422.65 496.39" stroke="#132e65" stroke-width="1.5"></path><path d="M1577.72 705.17L1248.05 705.32" stroke="#132e65" stroke-width="1.5"></path><circle r="5" cx="-55.99" cy="374.4" fill="#132e65"></circle><circle r="5" cx="-76.96" cy="554.66" fill="#132e65"></circle><circle r="5" cx="-109.19" cy="663.44" fill="#132e65"></circle><circle r="5" cx="94.59" cy="341.27" fill="#132e65"></circle><circle r="5" cx="38.86" cy="498.24" fill="#132e65"></circle><circle r="5" cx="99.16" cy="710.75" fill="#132e65"></circle><circle r="5" cx="224.14" cy="508.42" fill="#132e65"></circle><circle r="5" cx="239.2" cy="683.88" fill="#132e65"></circle><circle r="5" cx="411.54" cy="504.9" fill="#132e65"></circle><circle r="5" cx="349.08" cy="683.43" fill="#132e65"></circle><circle r="5" cx="549.2" cy="372.86" fill="#132e65"></circle><circle r="5" cx="501.25" cy="496.78" fill="#132e65"></circle><circle r="5" cx="487.58" cy="637.98" fill="#132e65"></circle><circle r="5" cx="705.19" cy="204.33" fill="#132e65"></circle><circle r="5" cx="682.81" cy="346.12" fill="#132e65"></circle><circle r="5" cx="676.72" cy="528.77" fill="#132e65"></circle><circle r="5" cx="690.9" cy="702.21" fill="#132e65"></circle><circle r="5" cx="834.01" cy="112.17" fill="#132e65"></circle><circle r="5" cx="834.34" cy="209.65" fill="#132e65"></circle><circle r="5" cx="837.49" cy="396.22" fill="#132e65"></circle><circle r="5" cx="814.48" cy="506.87" fill="#132e65"></circle><circle r="5" cx="984.4" cy="-85.02" fill="#132e65"></circle><circle r="5" cx="1006.85" cy="81.88" fill="#132e65"></circle><circle r="5" cx="992.53" cy="207.77" fill="#132e65"></circle><circle r="5" cx="942.97" cy="527.63" fill="#132e65"></circle><circle r="5" cx="980.35" cy="649.86" fill="#132e65"></circle><circle r="5" cx="1113.01" cy="-82.47" fill="#132e65"></circle><circle r="5" cx="1138.44" cy="37.63" fill="#132e65"></circle><circle r="5" cx="1109.16" cy="191.23" fill="#132e65"></circle><circle r="5" cx="1121.97" cy="503.85" fill="#132e65"></circle><circle r="5" cx="1153.14" cy="647.83" fill="#132e65"></circle><circle r="5" cx="1270.05" cy="-39.46" fill="#132e65"></circle><circle r="5" cx="1267.49" cy="68.87" fill="#132e65"></circle><circle r="5" cx="1293.06" cy="198.93" fill="#132e65"></circle><circle r="5" cx="1299.59" cy="350.01" fill="#132e65"></circle><circle r="5" cx="1282.24" cy="525.19" fill="#132e65"></circle><circle r="5" cx="1248.05" cy="705.32" fill="#132e65"></circle><circle r="5" cx="1438.88" cy="-103.32" fill="#132e65"></circle><circle r="5" cx="1391.62" cy="84.25" fill="#132e65"></circle><circle r="5" cx="1418.13" cy="223.78" fill="#132e65"></circle><circle r="5" cx="1461.98" cy="362.2" fill="#132e65"></circle><circle r="5" cx="1422.65" cy="496.39" fill="#132e65"></circle><circle r="5" cx="1444.72" cy="699.99" fill="#132e65"></circle><circle r="5" cx="1589.17" cy="-82.04" fill="#132e65"></circle><circle r="5" cx="1562.65" cy="60.47" fill="#132e65"></circle><circle r="5" cx="1581.73" cy="207.65" fill="#132e65"></circle><circle r="5" cx="1589.75" cy="374.06" fill="#132e65"></circle><circle r="5" cx="1585.76" cy="557.3" fill="#132e65"></circle><circle r="5" cx="1577.72" cy="705.17" fill="#132e65"></circle><path d="M-104.75 671.61L-104.75 671.61" stroke="hsl(228.5, 77.2%, 51.5%)" stroke-width="1.5"></path><path d="M-104.75 671.61L-47.42 553.93" stroke="hsl(228.5, 77.2%, 51.5%)" stroke-width="1.5"></path><path d="M-104.75 671.61L59.11 707.96" stroke="hsl(228.5, 77.2%, 51.5%)" stroke-width="1.5"></path><path d="M233.52 697.78L233.52 697.78" stroke="hsl(228.5, 77.2%, 51.5%)" stroke-width="1.5"></path><path d="M233.52 697.78L59.11 707.96" stroke="hsl(228.5, 77.2%, 51.5%)" stroke-width="1.5"></path><path d="M233.52 697.78L252.61 509.04" stroke="hsl(228.5, 77.2%, 51.5%)" stroke-width="1.5"></path><path d="M712.28 558.9L712.28 558.9" stroke="hsl(228.5, 77.2%, 51.5%)" stroke-width="1.5"></path><path d="M712.28 558.9L793.08 534.16" stroke="hsl(228.5, 77.2%, 51.5%)" stroke-width="1.5"></path><path d="M712.28 558.9L660.27 701.79" stroke="hsl(228.5, 77.2%, 51.5%)" stroke-width="1.5"></path><path d="M1145.83 191.25L1145.83 191.25" stroke="hsl(228.5, 77.2%, 51.5%)" stroke-width="1.5"></path><path d="M1145.83 191.25L1151 78.2" stroke="hsl(228.5, 77.2%, 51.5%)" stroke-width="1.5"></path><path d="M1145.83 191.25L1275.73 211.58" stroke="hsl(228.5, 77.2%, 51.5%)" stroke-width="1.5"></path><path d="M1417.18 75.34L1417.18 75.34" stroke="hsl(228.5, 77.2%, 51.5%)" stroke-width="1.5"></path><path d="M1417.18 75.34L1433.08 -59.32" stroke="hsl(228.5, 77.2%, 51.5%)" stroke-width="1.5"></path><path d="M1417.18 75.34L1461.08 221.79" stroke="hsl(228.5, 77.2%, 51.5%)" stroke-width="1.5"></path><path d="M1417.18 75.34L1247.68 89.27" stroke="hsl(228.5, 77.2%, 51.5%)" stroke-width="1.5"></path><path d="M1412.78 354.72L1412.78 354.72" stroke="hsl(228.5, 77.2%, 51.5%)" stroke-width="1.5"></path><path d="M1412.78 354.72L1299.96 344.79" stroke="hsl(228.5, 77.2%, 51.5%)" stroke-width="1.5"></path><path d="M1412.78 354.72L1549.65 361.76" stroke="hsl(228.5, 77.2%, 51.5%)" stroke-width="1.5"></path><path d="M1412.78 354.72L1461.08 221.79" stroke="hsl(228.5, 77.2%, 51.5%)" stroke-width="1.5"></path><path d="M1412.78 354.72L1450.98 528.57" stroke="hsl(228.5, 77.2%, 51.5%)" stroke-width="1.5"></path><path d="M1412.78 354.72L1275.73 211.58" stroke="hsl(228.5, 77.2%, 51.5%)" stroke-width="1.5"></path><path d="M1412.78 354.72L1581.48 227.7" stroke="hsl(228.5, 77.2%, 51.5%)" stroke-width="1.5"></path><path d="M-47.42 553.93L-47.42 553.93" stroke="hsl(228.5, 77.2%, 51.5%)" stroke-width="1.5"></path><path d="M-47.42 553.93L95.91 519.06" stroke="hsl(228.5, 77.2%, 51.5%)" stroke-width="1.5"></path><path d="M95.91 519.06L95.91 519.06" stroke="hsl(228.5, 77.2%, 51.5%)" stroke-width="1.5"></path><path d="M95.91 519.06L252.61 509.04" stroke="hsl(228.5, 77.2%, 51.5%)" stroke-width="1.5"></path><path d="M95.91 519.06L59.11 707.96" stroke="hsl(228.5, 77.2%, 51.5%)" stroke-width="1.5"></path><path d="M59.11 707.96L59.11 707.96" stroke="hsl(228.5, 77.2%, 51.5%)" stroke-width="1.5"></path><path d="M59.11 707.96L-47.42 553.93" stroke="hsl(228.5, 77.2%, 51.5%)" stroke-width="1.5"></path><path d="M252.61 509.04L252.61 509.04" stroke="hsl(228.5, 77.2%, 51.5%)" stroke-width="1.5"></path><path d="M252.61 509.04L59.11 707.96" stroke="hsl(228.5, 77.2%, 51.5%)" stroke-width="1.5"></path><path d="M252.61 509.04L-47.42 553.93" stroke="hsl(228.5, 77.2%, 51.5%)" stroke-width="1.5"></path><path d="M252.61 509.04L561.17 512.69" stroke="hsl(228.5, 77.2%, 51.5%)" stroke-width="1.5"></path><path d="M252.61 509.04L-104.75 671.61" stroke="hsl(228.5, 77.2%, 51.5%)" stroke-width="1.5"></path><path d="M561.17 512.69L561.17 512.69" stroke="hsl(228.5, 77.2%, 51.5%)" stroke-width="1.5"></path><path d="M561.17 512.69L712.28 558.9" stroke="hsl(228.5, 77.2%, 51.5%)" stroke-width="1.5"></path><path d="M561.17 512.69L701.93 402.34" stroke="hsl(228.5, 77.2%, 51.5%)" stroke-width="1.5"></path><path d="M561.17 512.69L660.27 701.79" stroke="hsl(228.5, 77.2%, 51.5%)" stroke-width="1.5"></path><path d="M701.93 402.34L701.93 402.34" stroke="hsl(228.5, 77.2%, 51.5%)" stroke-width="1.5"></path><path d="M701.93 402.34L843.36 358.88" stroke="hsl(228.5, 77.2%, 51.5%)" stroke-width="1.5"></path><path d="M701.93 402.34L712.28 558.9" stroke="hsl(228.5, 77.2%, 51.5%)" stroke-width="1.5"></path><path d="M660.27 701.79L660.27 701.79" stroke="hsl(228.5, 77.2%, 51.5%)" stroke-width="1.5"></path><path d="M660.27 701.79L793.08 534.16" stroke="hsl(228.5, 77.2%, 51.5%)" stroke-width="1.5"></path><path d="M843.36 358.88L843.36 358.88" stroke="hsl(228.5, 77.2%, 51.5%)" stroke-width="1.5"></path><path d="M843.36 358.88L793.08 534.16" stroke="hsl(228.5, 77.2%, 51.5%)" stroke-width="1.5"></path><path d="M843.36 358.88L712.28 558.9" stroke="hsl(228.5, 77.2%, 51.5%)" stroke-width="1.5"></path><path d="M843.36 358.88L1149.27 359.15" stroke="hsl(228.5, 77.2%, 51.5%)" stroke-width="1.5"></path><path d="M843.36 358.88L561.17 512.69" stroke="hsl(228.5, 77.2%, 51.5%)" stroke-width="1.5"></path><path d="M793.08 534.16L793.08 534.16" stroke="hsl(228.5, 77.2%, 51.5%)" stroke-width="1.5"></path><path d="M793.08 534.16L701.93 402.34" stroke="hsl(228.5, 77.2%, 51.5%)" stroke-width="1.5"></path><path d="M793.08 534.16L561.17 512.69" stroke="hsl(228.5, 77.2%, 51.5%)" stroke-width="1.5"></path><path d="M793.08 534.16L1009.34 676.86" stroke="hsl(228.5, 77.2%, 51.5%)" stroke-width="1.5"></path><path d="M1009.34 676.86L1009.34 676.86" stroke="hsl(228.5, 77.2%, 51.5%)" stroke-width="1.5"></path><path d="M1009.34 676.86L1115.94 677.96" stroke="hsl(228.5, 77.2%, 51.5%)" stroke-width="1.5"></path><path d="M1009.34 676.86L1271.13 692.54" stroke="hsl(228.5, 77.2%, 51.5%)" stroke-width="1.5"></path><path d="M1009.34 676.86L1260.51 516.81" stroke="hsl(228.5, 77.2%, 51.5%)" stroke-width="1.5"></path><path d="M1009.34 676.86L712.28 558.9" stroke="hsl(228.5, 77.2%, 51.5%)" stroke-width="1.5"></path><path d="M1009.34 676.86L1149.27 359.15" stroke="hsl(228.5, 77.2%, 51.5%)" stroke-width="1.5"></path><path d="M1161.14 -77.97L1161.14 -77.97" stroke="hsl(228.5, 77.2%, 51.5%)" stroke-width="1.5"></path><path d="M1161.14 -77.97L1254.18 -44.58" stroke="hsl(228.5, 77.2%, 51.5%)" stroke-width="1.5"></path><path d="M1161.14 -77.97L1151 78.2" stroke="hsl(228.5, 77.2%, 51.5%)" stroke-width="1.5"></path><path d="M1161.14 -77.97L1247.68 89.27" stroke="hsl(228.5, 77.2%, 51.5%)" stroke-width="1.5"></path><path d="M1161.14 -77.97L1145.83 191.25" stroke="hsl(228.5, 77.2%, 51.5%)" stroke-width="1.5"></path><path d="M1151 78.2L1151 78.2" stroke="hsl(228.5, 77.2%, 51.5%)" stroke-width="1.5"></path><path d="M1151 78.2L1247.68 89.27" stroke="hsl(228.5, 77.2%, 51.5%)" stroke-width="1.5"></path><path d="M1151 78.2L1254.18 -44.58" stroke="hsl(228.5, 77.2%, 51.5%)" stroke-width="1.5"></path><path d="M1151 78.2L1275.73 211.58" stroke="hsl(228.5, 77.2%, 51.5%)" stroke-width="1.5"></path><path d="M1151 78.2L1417.18 75.34" stroke="hsl(228.5, 77.2%, 51.5%)" stroke-width="1.5"></path><path d="M1149.27 359.15L1149.27 359.15" stroke="hsl(228.5, 77.2%, 51.5%)" stroke-width="1.5"></path><path d="M1149.27 359.15L1299.96 344.79" stroke="hsl(228.5, 77.2%, 51.5%)" stroke-width="1.5"></path><path d="M1149.27 359.15L1145.83 191.25" stroke="hsl(228.5, 77.2%, 51.5%)" stroke-width="1.5"></path><path d="M1149.27 359.15L1260.51 516.81" stroke="hsl(228.5, 77.2%, 51.5%)" stroke-width="1.5"></path><path d="M1115.94 677.96L1115.94 677.96" stroke="hsl(228.5, 77.2%, 51.5%)" stroke-width="1.5"></path><path d="M1115.94 677.96L1271.13 692.54" stroke="hsl(228.5, 77.2%, 51.5%)" stroke-width="1.5"></path><path d="M1115.94 677.96L1260.51 516.81" stroke="hsl(228.5, 77.2%, 51.5%)" stroke-width="1.5"></path><path d="M1115.94 677.96L1149.27 359.15" stroke="hsl(228.5, 77.2%, 51.5%)" stroke-width="1.5"></path><path d="M1115.94 677.96L1456.54 700.98" stroke="hsl(228.5, 77.2%, 51.5%)" stroke-width="1.5"></path><path d="M1115.94 677.96L793.08 534.16" stroke="hsl(228.5, 77.2%, 51.5%)" stroke-width="1.5"></path><path d="M1254.18 -44.58L1254.18 -44.58" stroke="hsl(228.5, 77.2%, 51.5%)" stroke-width="1.5"></path><path d="M1247.68 89.27L1247.68 89.27" stroke="hsl(228.5, 77.2%, 51.5%)" stroke-width="1.5"></path><path d="M1247.68 89.27L1275.73 211.58" stroke="hsl(228.5, 77.2%, 51.5%)" stroke-width="1.5"></path><path d="M1247.68 89.27L1254.18 -44.58" stroke="hsl(228.5, 77.2%, 51.5%)" stroke-width="1.5"></path><path d="M1247.68 89.27L1145.83 191.25" stroke="hsl(228.5, 77.2%, 51.5%)" stroke-width="1.5"></path><path d="M1275.73 211.58L1275.73 211.58" stroke="hsl(228.5, 77.2%, 51.5%)" stroke-width="1.5"></path><path d="M1275.73 211.58L1299.96 344.79" stroke="hsl(228.5, 77.2%, 51.5%)" stroke-width="1.5"></path><path d="M1275.73 211.58L1461.08 221.79" stroke="hsl(228.5, 77.2%, 51.5%)" stroke-width="1.5"></path><path d="M1275.73 211.58L1149.27 359.15" stroke="hsl(228.5, 77.2%, 51.5%)" stroke-width="1.5"></path><path d="M1299.96 344.79L1299.96 344.79" stroke="hsl(228.5, 77.2%, 51.5%)" stroke-width="1.5"></path><path d="M1260.51 516.81L1260.51 516.81" stroke="hsl(228.5, 77.2%, 51.5%)" stroke-width="1.5"></path><path d="M1260.51 516.81L1271.13 692.54" stroke="hsl(228.5, 77.2%, 51.5%)" stroke-width="1.5"></path><path d="M1260.51 516.81L1299.96 344.79" stroke="hsl(228.5, 77.2%, 51.5%)" stroke-width="1.5"></path><path d="M1260.51 516.81L1450.98 528.57" stroke="hsl(228.5, 77.2%, 51.5%)" stroke-width="1.5"></path><path d="M1260.51 516.81L1412.78 354.72" stroke="hsl(228.5, 77.2%, 51.5%)" stroke-width="1.5"></path><path d="M1271.13 692.54L1271.13 692.54" stroke="hsl(228.5, 77.2%, 51.5%)" stroke-width="1.5"></path><path d="M1271.13 692.54L1456.54 700.98" stroke="hsl(228.5, 77.2%, 51.5%)" stroke-width="1.5"></path><path d="M1271.13 692.54L1450.98 528.57" stroke="hsl(228.5, 77.2%, 51.5%)" stroke-width="1.5"></path><path d="M1271.13 692.54L1559.94 657.1" stroke="hsl(228.5, 77.2%, 51.5%)" stroke-width="1.5"></path><path d="M1433.08 -59.32L1433.08 -59.32" stroke="hsl(228.5, 77.2%, 51.5%)" stroke-width="1.5"></path><path d="M1433.08 -59.32L1571.39 -45.36" stroke="hsl(228.5, 77.2%, 51.5%)" stroke-width="1.5"></path><path d="M1433.08 -59.32L1254.18 -44.58" stroke="hsl(228.5, 77.2%, 51.5%)" stroke-width="1.5"></path><path d="M1461.08 221.79L1461.08 221.79" stroke="hsl(228.5, 77.2%, 51.5%)" stroke-width="1.5"></path><path d="M1461.08 221.79L1581.48 227.7" stroke="hsl(228.5, 77.2%, 51.5%)" stroke-width="1.5"></path><path d="M1450.98 528.57L1450.98 528.57" stroke="hsl(228.5, 77.2%, 51.5%)" stroke-width="1.5"></path><path d="M1450.98 528.57L1594.76 546.94" stroke="hsl(228.5, 77.2%, 51.5%)" stroke-width="1.5"></path><path d="M1450.98 528.57L1559.94 657.1" stroke="hsl(228.5, 77.2%, 51.5%)" stroke-width="1.5"></path><path d="M1456.54 700.98L1456.54 700.98" stroke="hsl(228.5, 77.2%, 51.5%)" stroke-width="1.5"></path><path d="M1456.54 700.98L1559.94 657.1" stroke="hsl(228.5, 77.2%, 51.5%)" stroke-width="1.5"></path><path d="M1456.54 700.98L1450.98 528.57" stroke="hsl(228.5, 77.2%, 51.5%)" stroke-width="1.5"></path><path d="M1571.39 -45.36L1571.39 -45.36" stroke="hsl(228.5, 77.2%, 51.5%)" stroke-width="1.5"></path><path d="M1571.39 -45.36L1606.37 75.98" stroke="hsl(228.5, 77.2%, 51.5%)" stroke-width="1.5"></path><path d="M1571.39 -45.36L1417.18 75.34" stroke="hsl(228.5, 77.2%, 51.5%)" stroke-width="1.5"></path><path d="M1606.37 75.98L1606.37 75.98" stroke="hsl(228.5, 77.2%, 51.5%)" stroke-width="1.5"></path><path d="M1606.37 75.98L1581.48 227.7" stroke="hsl(228.5, 77.2%, 51.5%)" stroke-width="1.5"></path><path d="M1606.37 75.98L1417.18 75.34" stroke="hsl(228.5, 77.2%, 51.5%)" stroke-width="1.5"></path><path d="M1606.37 75.98L1461.08 221.79" stroke="hsl(228.5, 77.2%, 51.5%)" stroke-width="1.5"></path><path d="M1581.48 227.7L1581.48 227.7" stroke="hsl(228.5, 77.2%, 51.5%)" stroke-width="1.5"></path><path d="M1581.48 227.7L1549.65 361.76" stroke="hsl(228.5, 77.2%, 51.5%)" stroke-width="1.5"></path><path d="M1549.65 361.76L1549.65 361.76" stroke="hsl(228.5, 77.2%, 51.5%)" stroke-width="1.5"></path><path d="M1549.65 361.76L1461.08 221.79" stroke="hsl(228.5, 77.2%, 51.5%)" stroke-width="1.5"></path><path d="M1549.65 361.76L1594.76 546.94" stroke="hsl(228.5, 77.2%, 51.5%)" stroke-width="1.5"></path><path d="M1549.65 361.76L1450.98 528.57" stroke="hsl(228.5, 77.2%, 51.5%)" stroke-width="1.5"></path><path d="M1594.76 546.94L1594.76 546.94" stroke="hsl(228.5, 77.2%, 51.5%)" stroke-width="1.5"></path><path d="M1594.76 546.94L1559.94 657.1" stroke="hsl(228.5, 77.2%, 51.5%)" stroke-width="1.5"></path><path d="M1559.94 657.1L1559.94 657.1" stroke="hsl(228.5, 77.2%, 51.5%)" stroke-width="1.5"></path><circle r="25" cx="-104.75" cy="671.61" fill="url(&quot;#SvgjsRadialGradient1001&quot;)"></circle><circle r="25" cx="233.52" cy="697.78" fill="url(&quot;#SvgjsRadialGradient1001&quot;)"></circle><circle r="25" cx="712.28" cy="558.9" fill="url(&quot;#SvgjsRadialGradient1001&quot;)"></circle><circle r="25" cx="1145.83" cy="191.25" fill="url(&quot;#SvgjsRadialGradient1001&quot;)"></circle><circle r="25" cx="1417.18" cy="75.34" fill="url(&quot;#SvgjsRadialGradient1001&quot;)"></circle><circle r="25" cx="1412.78" cy="354.72" fill="url(&quot;#SvgjsRadialGradient1001&quot;)"></circle><circle r="5" cx="-47.42" cy="553.93" fill="#8b9ad9"></circle><circle r="5" cx="95.91" cy="519.06" fill="#8b9ad9"></circle><circle r="5" cx="59.11" cy="707.96" fill="#8b9ad9"></circle><circle r="5" cx="252.61" cy="509.04" fill="#8b9ad9"></circle><circle r="5" cx="561.17" cy="512.69" fill="#8b9ad9"></circle><circle r="5" cx="701.93" cy="402.34" fill="#8b9ad9"></circle><circle r="5" cx="660.27" cy="701.79" fill="#8b9ad9"></circle><circle r="5" cx="843.36" cy="358.88" fill="#8b9ad9"></circle><circle r="5" cx="793.08" cy="534.16" fill="#8b9ad9"></circle><circle r="5" cx="1009.34" cy="676.86" fill="#8b9ad9"></circle><circle r="5" cx="1161.14" cy="-77.97" fill="#8b9ad9"></circle><circle r="5" cx="1151" cy="78.2" fill="#8b9ad9"></circle><circle r="5" cx="1149.27" cy="359.15" fill="#8b9ad9"></circle><circle r="5" cx="1115.94" cy="677.96" fill="#8b9ad9"></circle><circle r="5" cx="1254.18" cy="-44.58" fill="#8b9ad9"></circle><circle r="5" cx="1247.68" cy="89.27" fill="#8b9ad9"></circle><circle r="5" cx="1275.73" cy="211.58" fill="#8b9ad9"></circle><circle r="5" cx="1299.96" cy="344.79" fill="#8b9ad9"></circle><circle r="5" cx="1260.51" cy="516.81" fill="#8b9ad9"></circle><circle r="5" cx="1271.13" cy="692.54" fill="#8b9ad9"></circle><circle r="5" cx="1433.08" cy="-59.32" fill="#8b9ad9"></circle><circle r="5" cx="1461.08" cy="221.79" fill="#8b9ad9"></circle><circle r="5" cx="1450.98" cy="528.57" fill="#8b9ad9"></circle><circle r="5" cx="1456.54" cy="700.98" fill="#8b9ad9"></circle><circle r="5" cx="1571.39" cy="-45.36" fill="#8b9ad9"></circle><circle r="5" cx="1606.37" cy="75.98" fill="#8b9ad9"></circle><circle r="5" cx="1581.48" cy="227.7" fill="#8b9ad9"></circle><circle r="5" cx="1549.65" cy="361.76" fill="#8b9ad9"></circle><circle r="5" cx="1594.76" cy="546.94" fill="#8b9ad9"></circle><circle r="5" cx="1559.94" cy="657.1" fill="#8b9ad9"></circle></g><defs><mask id="SvgjsMask1000"><rect width="1440" height="560" fill="#ffffff"></rect></mask><radialGradient id="SvgjsRadialGradient1001"><stop stop-color="#ffffff" offset="0.1"></stop><stop stop-color="#1735b3" offset="0.2"></stop><stop stop-color="rgba(23, 53, 179, 0)" offset="1"></stop></radialGradient></defs></svg>